<?xml version="1.0" encoding="UTF-8" standalone="no"?>
<!-- Created with Inkscape (http://www.inkscape.org/) -->

<svg
   xmlns:dc="http://purl.org/dc/elements/1.1/"
   xmlns:cc="http://creativecommons.org/ns#"
   xmlns:rdf="http://www.w3.org/1999/02/22-rdf-syntax-ns#"
   xmlns:svg="http://www.w3.org/2000/svg"
   xmlns="http://www.w3.org/2000/svg"
   xmlns:sodipodi="http://sodipodi.sourceforge.net/DTD/sodipodi-0.dtd"
   xmlns:inkscape="http://www.inkscape.org/namespaces/inkscape"
   width="460"
   height="460"
   viewBox="0 0 460.00001 460.00001"
   id="svg3410"
   version="1.1"
   inkscape:version="0.91 r13725"
   sodipodi:docname="favicon.svg">
  <defs
     id="defs3412" />
  <sodipodi:namedview
     id="base"
     pagecolor="#ffffff"
     bordercolor="#666666"
     borderopacity="1.0"
     inkscape:pageopacity="0.0"
     inkscape:pageshadow="2"
     inkscape:zoom="0.78886719"
     inkscape:cx="197.10791"
     inkscape:cy="106.31841"
     inkscape:document-units="px"
     inkscape:current-layer="layer1"
     showgrid="false"
     fit-margin-top="0"
     fit-margin-left="0"
     fit-margin-right="0"
     fit-margin-bottom="0"
     units="px"
     inkscape:window-width="1301"
     inkscape:window-height="744"
     inkscape:window-x="65"
     inkscape:window-y="24"
     inkscape:window-maximized="1" />
  <metadata
     id="metadata3415">
    <rdf:RDF>
      <cc:Work
         rdf:about="">
        <dc:format>image/svg+xml</dc:format>
        <dc:type
           rdf:resource="http://purl.org/dc/dcmitype/StillImage" />
        <dc:title></dc:title>
      </cc:Work>
    </rdf:RDF>
  </metadata>
  <g
     inkscape:label="Layer 1"
     inkscape:groupmode="layer"
     id="layer1"
     transform="translate(-124.75225,-247.0405)">
    <g
       id="g4269"
       transform="translate(7.9330824,-4.6131152)">
      <rect
         y="358.96286"
         x="133.10225"
         height="339.72766"
         width="339.72766"
         id="rect3418"
         style="opacity:1;fill:#473b77;fill-opacity:1;fill-rule:nonzero;stroke:#473b77;stroke-width:16.70000076;stroke-linecap:round;stroke-linejoin:round;stroke-miterlimit:4;stroke-dasharray:none;stroke-dashoffset:0;stroke-opacity:1" />
      <path
         inkscape:connector-curvature="0"
         id="path4265"
         d="m 564.52344,256.27148 c -24.05163,3.77274 -48.40418,9.38157 -69.06641,22.875 -37.06422,21.42041 -71.49822,48.03514 -98.5957,81.39454 -42.06472,50.61742 -71.4029,110.26255 -97.59359,170.2276 -4.5782,10.9347 -9.35221,23.66849 -12.56462,33.997 -15.47936,-23.65223 -31.24047,-47.14474 -46.33789,-71.05468 -6.85405,-4.18914 -12.33146,4.32971 -18.29687,6.54687 -10.1635,6.86371 -21.93515,11.91658 -31.03046,19.99145 -1.23458,6.50257 6.77146,9.71551 9.55053,14.80349 23.40177,27.30211 40.34767,59.2493 60.18501,89.05663 3.52578,4.77839 9.37122,12.29371 15.97319,7.47315 13.84494,-6.25934 29.10505,-9.68381 42.18696,-17.38917 7.89713,-8.01181 7.88309,-20.21787 10.25101,-30.55031 2.98072,-22.6512 5.90249,-45.69891 14.832,-66.81769 14.08901,-37.24405 31.6159,-73.30298 52.15723,-107.42692 25.60222,-41.11379 57.10212,-79.88787 96.98828,-108.02539 11.70462,-4.62068 24.85499,-4.64804 36.35494,-9.45428 12.88788,-10.41339 27.45424,-19.16225 39.19779,-30.74885 0.86667,-2.55745 -1.71416,-5.02646 -4.1914,-4.89844 z"
         style="opacity:1;fill:#ffffff;fill-opacity:1;fill-rule:nonzero;stroke:none;stroke-width:3.20000005;stroke-linecap:round;stroke-linejoin:round;stroke-miterlimit:4;stroke-dasharray:none;stroke-dashoffset:0;stroke-opacity:1" />
      <path
         inkscape:connector-curvature="0"
         id="path3450"
         d="m 564.55469,258.27148 c -20.28476,3.60377 -40.98791,7.21983 -59.13933,17.56436 -24.02981,13.1517 -46.83972,28.60158 -67.95087,46.03395 -50.40554,43.60436 -85.33741,101.77042 -114.11288,161.13597 -12.8082,26.27329 -25.18527,52.94012 -34.27349,80.75519 -0.61395,7.15503 -2.78701,4.58052 -5.48236,-0.34047 -15.28297,-22.67237 -30.2263,-45.57265 -44.91607,-68.63337 -5.3849,-1.79721 -10.3731,5.34399 -15.5409,7.16095 -10.06018,6.45513 -20.92757,12.06069 -30.49823,19.03103 -0.007,4.46772 5.90915,7.34793 8.17975,11.25529 23.46452,27.32061 41.12646,58.87381 60.20703,89.21874 3.46213,3.3564 6.17651,9.17588 11.33594,9.8379 14.17048,-6.27678 28.99126,-10.76703 43.13672,-17.03711 8.03404,-4.85452 8.25366,-15.67753 10.57812,-23.75782 3.78255,-22.3079 4.9094,-44.85632 13.12733,-66.13339 11.67342,-33.86029 27.71038,-66.372 44.61096,-98.03848 27.46935,-48.37097 62.31173,-93.54794 107.54101,-126.4043 11.62943,-4.55728 24.44221,-5.52879 36.14421,-8.96917 12.92143,-10.09341 26.71189,-19.43778 39.09708,-29.99338 0.97674,-1.30623 -0.76743,-2.80079 -2.04402,-2.68589 z"
         style="opacity:1;fill:#ef7d2e;fill-opacity:1;fill-rule:nonzero;stroke:none;stroke-width:3.20000005;stroke-linecap:round;stroke-linejoin:round;stroke-miterlimit:4;stroke-dasharray:none;stroke-dashoffset:0;stroke-opacity:1" />
    </g>
  </g>
</svg>
